<?xml version="1.0" standalone="no"?>
<!DOCTYPE svg PUBLIC "-//W3C//DTD SVG 20010904//EN"
 "http://www.w3.org/TR/2001/REC-SVG-20010904/DTD/svg10.dtd">
<svg version="1.0" xmlns="http://www.w3.org/2000/svg"
 width="700.000000pt" height="700.000000pt" viewBox="0 0 700.000000 700.000000"
 preserveAspectRatio="xMidYMid meet">
<metadata>
Created by potrace 1.14, written by Peter Selinger 2001-2017
</metadata>
<g transform="translate(0.000000,700.000000) scale(0.100000,-0.100000)"
fill="#000000" stroke="none">
<path d="M3278 6996 c-1 -2 -42 -6 -89 -10 -47 -4 -95 -8 -105 -10 -10 -2 -41
-7 -69 -10 -428 -56 -875 -210 -1270 -439 -103 -60 -265 -165 -315 -204 -8 -6
-51 -40 -95 -74 -353 -275 -673 -651 -897 -1054 -49 -87 -148 -289 -148 -301
0 -2 -9 -23 -20 -47 -57 -123 -157 -435 -186 -582 -2 -11 -10 -54 -19 -95 -29
-147 -36 -200 -52 -370 -15 -164 -8 -592 12 -711 2 -13 6 -46 9 -74 9 -78 22
-152 51 -285 21 -96 91 -339 114 -395 5 -11 25 -65 46 -120 63 -166 249 -531
312 -610 4 -6 34 -49 65 -95 170 -255 433 -535 708 -755 92 -74 370 -265 386
-265 4 0 15 -6 23 -14 26 -22 298 -158 411 -205 267 -111 589 -200 859 -237
25 -3 57 -8 71 -10 163 -25 682 -25 842 1 13 2 46 7 73 10 72 10 86 12 120 19
17 3 44 8 60 11 194 37 411 101 622 184 130 52 418 192 473 231 15 11 33 20
39 20 6 0 11 5 11 10 0 6 5 10 10 10 15 0 220 141 330 227 152 118 324 280
450 422 36 41 70 79 76 85 65 68 263 353 352 508 47 80 182 351 182 364 0 3 8
24 19 47 53 118 147 417 177 562 17 81 54 301 59 350 4 33 9 71 11 85 9 47 11
525 3 605 -15 165 -21 220 -24 225 -2 3 -6 30 -10 60 -9 75 -69 337 -99 435
-174 571 -466 1062 -881 1478 -384 385 -846 672 -1360 845 -168 57 -420 119
-555 137 -19 3 -46 7 -60 10 -13 2 -52 7 -86 11 -33 3 -74 8 -90 10 -32 5
-540 14 -546 10z m-428 -1956 c147 -33 186 -43 238 -59 147 -48 305 -144 396
-242 l53 -57 39 34 c175 154 463 285 699 318 255 36 535 25 744 -29 432 -112
714 -383 815 -784 41 -164 67 -146 -221 -144 -137 1 -251 2 -255 2 -3 1 -12
18 -18 39 -7 20 -16 41 -21 47 -5 5 -9 15 -9 23 0 25 -88 148 -137 192 -89 80
-203 143 -308 169 -49 13 -61 15 -120 27 -60 12 -290 10 -365 -4 -238 -44
-424 -162 -562 -357 -85 -119 -156 -290 -182 -440 -3 -16 -8 -40 -10 -53 -11
-52 -19 -153 -21 -257 -2 -150 7 -246 40 -416 2 -9 14 -49 26 -90 13 -41 23
-76 24 -79 14 -45 88 -191 125 -245 92 -134 269 -267 424 -319 249 -84 599
-62 804 51 154 85 258 203 305 348 l17 50 257 0 c163 -1 258 -5 260 -11 8 -24
-50 -214 -91 -296 -103 -205 -232 -344 -441 -475 -67 -42 -242 -112 -345 -138
-81 -21 -71 -19 -225 -41 -68 -10 -316 -11 -395 -3 -132 14 -163 20 -261 44
-226 57 -422 161 -591 313 l-37 34 -63 -68 c-77 -82 -142 -131 -250 -187 -66
-35 -207 -88 -233 -88 -2 0 -19 -5 -37 -10 -164 -47 -495 -57 -748 -23 -125
17 -282 62 -399 115 -95 43 -222 131 -297 207 -148 149 -229 301 -273 512
l-18 85 181 5 c100 3 222 4 273 2 l91 -3 16 -50 c45 -137 171 -268 322 -335
126 -56 250 -78 434 -78 158 -1 245 9 323 35 195 65 300 182 313 350 17 211
-62 330 -272 408 -69 26 -292 85 -441 117 -257 54 -484 125 -643 201 -204 98
-343 225 -418 383 -56 119 -64 157 -68 345 -3 147 12 265 44 345 5 14 11 30
12 35 8 29 68 128 116 191 74 97 165 172 284 233 59 31 183 77 228 86 127 24
211 36 292 41 52 4 97 8 99 10 10 9 432 -5 481 -16z"/>
<path d="M2407 4594 c-1 -1 -40 -4 -87 -7 -115 -8 -182 -23 -265 -63 -117 -56
-184 -125 -220 -229 -28 -83 -19 -230 21 -307 51 -98 184 -185 379 -245 98
-30 392 -104 475 -119 14 -3 52 -12 85 -21 33 -8 70 -17 83 -19 12 -3 59 -16
103 -30 45 -14 82 -24 84 -22 2 2 6 39 9 83 12 155 46 327 95 471 l37 112 -17
51 c-58 180 -242 305 -493 337 -44 6 -284 12 -289 8z"/>
</g>
</svg>
